<svg xmlns="http://www.w3.org/2000/svg" xmlns:xlink="http://www.w3.org/1999/xlink" width="200" zoomAndPan="magnify" viewBox="0 0 150 74.999997" height="100" preserveAspectRatio="xMidYMid meet" version="1.0"><defs><g/><clipPath id="6823cd236b"><path d="M 3.308594 18.28125 L 41.558594 18.28125 L 41.558594 56.53125 L 3.308594 56.53125 Z M 3.308594 18.28125 " clip-rule="nonzero"/></clipPath><clipPath id="580cbc883b"><path d="M 25 49 L 29 49 L 29 56.53125 L 25 56.53125 Z M 25 49 " clip-rule="nonzero"/></clipPath><clipPath id="5a3b18184a"><path d="M 23 49 L 26 49 L 26 56.53125 L 23 56.53125 Z M 23 49 " clip-rule="nonzero"/></clipPath><clipPath id="48bb32c31a"><path d="M 18 47 L 24 47 L 24 56.53125 L 18 56.53125 Z M 18 47 " clip-rule="nonzero"/></clipPath></defs><g clip-path="url(#6823cd236b)"><path fill="#f8c439" d="M 3.308594 37.40625 C 3.308594 26.84375 11.871094 18.28125 22.433594 18.28125 C 32.996094 18.28125 41.558594 26.84375 41.558594 37.40625 C 41.558594 47.96875 32.996094 56.527344 22.433594 56.527344 C 11.871094 56.527344 3.308594 47.96875 3.308594 37.40625 " fill-opacity="1" fill-rule="nonzero"/><path fill="#f9cf5c" d="M 17.363281 55.851562 L 17.824219 55.554688 L 17.265625 55.824219 C 16.925781 55.726562 16.585938 55.621094 16.253906 55.507812 L 17.492188 54.875 L 15.996094 55.417969 C 15.667969 55.300781 15.339844 55.175781 15.019531 55.039062 L 17.230469 54.167969 L 14.578125 54.847656 C 14.269531 54.707031 13.960938 54.558594 13.660156 54.402344 L 17.035156 53.4375 L 13.023438 54.058594 C 12.742188 53.898438 12.464844 53.734375 12.195312 53.558594 L 16.914062 52.691406 L 11.371094 53.007812 C 11.125 52.832031 10.886719 52.652344 10.648438 52.46875 L 16.863281 51.9375 L 9.675781 51.652344 C 9.472656 51.46875 9.273438 51.28125 9.078125 51.09375 L 16.886719 51.183594 L 8.007812 49.960938 C 7.851562 49.78125 7.695312 49.597656 7.542969 49.40625 L 16.984375 50.433594 L 6.464844 47.933594 C 6.351562 47.761719 6.238281 47.585938 6.128906 47.40625 L 17.152344 49.695312 L 5.140625 45.582031 C 5.066406 45.425781 4.992188 45.261719 4.921875 45.101562 L 17.390625 48.980469 L 4.125 42.949219 C 4.082031 42.808594 4.042969 42.667969 4.003906 42.527344 L 17.699219 48.289062 L 3.496094 40.097656 C 3.480469 39.980469 3.464844 39.859375 3.449219 39.742188 L 18.070312 47.628906 L 3.3125 37.097656 C 3.3125 37 3.316406 36.90625 3.316406 36.808594 L 18.503906 47.011719 L 3.605469 34.035156 C 3.617188 33.960938 3.632812 33.890625 3.644531 33.816406 L 18.992188 46.4375 L 4.402344 31.011719 L 4.460938 30.851562 L 19.539062 45.910156 L 5.707031 28.125 L 5.769531 28.015625 L 20.132812 45.441406 L 7.488281 25.46875 L 7.546875 25.398438 L 20.765625 45.03125 L 9.707031 23.128906 L 9.75 23.089844 L 21.4375 44.683594 L 12.296875 21.183594 L 12.332031 21.164062 L 22.140625 44.40625 L 15.1875 19.699219 L 15.214844 19.691406 L 22.867188 44.195312 L 18.292969 18.730469 L 18.316406 18.726562 L 23.609375 44.054688 L 21.519531 18.300781 L 21.542969 18.300781 L 24.359375 43.984375 L 24.761719 18.421875 L 24.792969 18.425781 L 25.117188 43.992188 L 27.925781 19.082031 L 27.96875 19.09375 L 25.867188 44.070312 L 30.917969 20.261719 L 30.980469 20.292969 L 26.609375 44.21875 L 33.648438 21.914062 L 33.726562 21.96875 L 27.332031 44.441406 L 36.042969 23.96875 L 36.136719 24.066406 L 28.03125 44.730469 L 38.042969 26.355469 C 38.078125 26.40625 38.113281 26.457031 38.148438 26.503906 L 28.695312 45.085938 L 39.609375 28.984375 C 39.644531 29.058594 39.679688 29.128906 39.714844 29.203125 L 29.328125 45.503906 L 40.714844 31.769531 C 40.742188 31.867188 40.773438 31.964844 40.800781 32.066406 L 29.914062 45.980469 L 41.355469 34.621094 C 41.375 34.746094 41.390625 34.871094 41.40625 35 L 30.449219 46.511719 L 41.558594 37.4375 C 41.558594 37.589844 41.554688 37.746094 41.550781 37.902344 L 30.933594 47.09375 L 41.363281 40.132812 C 41.335938 40.316406 41.308594 40.5 41.277344 40.683594 L 31.359375 47.71875 L 40.832031 42.644531 C 40.769531 42.855469 40.707031 43.066406 40.640625 43.273438 L 31.722656 48.382812 L 40.023438 44.917969 C 39.925781 45.152344 39.820312 45.378906 39.714844 45.609375 L 32.019531 49.078125 L 39.023438 46.921875 C 38.882812 47.167969 38.738281 47.410156 38.585938 47.648438 L 32.246094 49.796875 L 37.914062 48.636719 C 37.730469 48.890625 37.539062 49.136719 37.347656 49.378906 L 32.40625 50.535156 L 36.757812 50.078125 C 36.535156 50.324219 36.308594 50.570312 36.078125 50.804688 L 32.492188 51.285156 L 35.613281 51.261719 C 35.363281 51.5 35.105469 51.730469 34.84375 51.957031 L 32.503906 52.042969 L 34.527344 52.222656 C 34.25 52.445312 33.972656 52.660156 33.683594 52.871094 L 32.445312 52.796875 L 33.511719 52.996094 C 33.222656 53.203125 32.925781 53.398438 32.625 53.589844 L 32.3125 53.539062 L 32.582031 53.617188 C 29.640625 55.460938 26.160156 56.527344 22.433594 56.527344 C 20.679688 56.527344 18.980469 56.292969 17.363281 55.851562 " fill-opacity="1" fill-rule="nonzero"/></g><g clip-path="url(#580cbc883b)"><path fill="#211c1d" d="M 26.574219 49.894531 L 28.328125 55.601562 C 27.796875 55.773438 27.257812 55.921875 26.710938 56.050781 L 25.019531 50.292969 L 26.574219 49.894531 " fill-opacity="1" fill-rule="nonzero"/></g><path fill="#211c1d" d="M 29.484375 47.578125 C 29.671875 47.269531 29.941406 47.269531 30.296875 47.578125 L 32.976562 53.363281 C 32.542969 53.648438 32.097656 53.917969 31.640625 54.171875 L 29.261719 48.976562 L 29.484375 47.578125 " fill-opacity="1" fill-rule="nonzero"/><path fill="#211c1d" d="M 29.28125 24.316406 C 30.90625 23.96875 32.691406 25.882812 33.265625 28.589844 C 33.84375 31.296875 32.992188 33.773438 31.363281 34.117188 C 31.15625 34.164062 30.496094 34.234375 30.367188 34.261719 C 28.742188 34.609375 26.6875 32.757812 26.113281 30.050781 C 25.535156 27.34375 26.660156 24.804688 28.285156 24.460938 C 28.492188 24.414062 29.152344 24.34375 29.28125 24.316406 " fill-opacity="1" fill-rule="nonzero"/><path fill="#ffffff" d="M 29.339844 24.601562 C 30.695312 24.3125 32.410156 25.957031 32.980469 28.652344 C 33.554688 31.347656 32.660156 33.546875 31.304688 33.832031 C 29.949219 34.121094 28.238281 32.476562 27.664062 29.78125 C 27.089844 27.085938 27.988281 24.886719 29.339844 24.601562 " fill-opacity="1" fill-rule="nonzero"/><path fill="#211c1d" d="M 22.921875 19.804688 C 24.734375 19.421875 26.722656 21.554688 27.363281 24.574219 C 28.003906 27.589844 27.054688 30.351562 25.242188 30.734375 C 25.011719 30.785156 24.277344 30.867188 24.132812 30.894531 C 22.320312 31.28125 20.332031 29.148438 19.691406 26.128906 C 19.046875 23.113281 19.996094 20.351562 21.808594 19.96875 C 22.042969 19.917969 22.777344 19.835938 22.921875 19.804688 " fill-opacity="1" fill-rule="nonzero"/><path fill="#ffffff" d="M 22.988281 20.125 C 24.496094 19.800781 26.40625 21.636719 27.046875 24.640625 C 27.683594 27.644531 26.6875 30.097656 25.175781 30.417969 C 23.667969 30.738281 21.757812 28.90625 21.117188 25.902344 C 20.480469 22.894531 21.476562 20.445312 22.988281 20.125 " fill-opacity="1" fill-rule="nonzero"/><path fill="#211c1d" d="M 33.125 33.828125 L 22.066406 28.039062 L 14.195312 30.480469 L 13.648438 39.101562 L 26.234375 43.164062 L 33.132812 43.246094 L 33.433594 34.453125 L 33.125 33.828125 " fill-opacity="1" fill-rule="evenodd"/><path fill="#211c1d" d="M 20.691406 29.019531 L 14.003906 25.875 L 13.878906 25.519531 L 13.484375 25.210938 L 6.683594 27.769531 L 6.519531 35.128906 L 7.386719 35.003906 L 7.742188 35.433594 L 15.0625 37.445312 L 20.371094 35.636719 L 20.691406 29.019531 " fill-opacity="1" fill-rule="evenodd"/><path fill="#211c1d" d="M 19.148438 47.777344 C 19.148438 46.558594 21.523438 45.574219 24.449219 45.574219 C 27.378906 45.574219 29.753906 46.558594 29.753906 47.777344 C 29.753906 47.949219 29.726562 48.539062 29.726562 48.675781 C 29.726562 49.75 27.359375 50.621094 24.4375 50.621094 C 21.515625 50.621094 19.148438 49.75 19.148438 48.675781 C 19.148438 48.53125 19.148438 47.941406 19.148438 47.777344 " fill-opacity="1" fill-rule="nonzero"/><g clip-path="url(#5a3b18184a)"><path fill="#211c1d" d="M 25.988281 49.332031 L 25.859375 55.558594 C 25.339844 56.222656 23.757812 56.113281 23.644531 55.433594 L 23.609375 49.300781 L 25.988281 49.332031 " fill-opacity="1" fill-rule="evenodd"/></g><path fill="#211c1d" d="M 21.289062 41.40625 C 20.828125 43.304688 21.835938 45.617188 22.882812 45.761719 L 27.753906 46.765625 C 28.222656 45.929688 28.5625 44.648438 28.773438 42.917969 L 21.289062 41.40625 " fill-opacity="1" fill-rule="evenodd"/><path fill="#211c1d" d="M 27.644531 45.074219 C 27.644531 44.304688 28.101562 43.683594 28.667969 43.683594 C 29.238281 43.683594 29.695312 44.304688 29.695312 45.074219 C 29.695312 45.839844 29.238281 46.464844 28.667969 46.464844 C 28.101562 46.464844 27.644531 45.839844 27.644531 45.074219 " fill-opacity="1" fill-rule="nonzero"/><path fill="#211c1d" d="M 32.761719 34.117188 L 34.15625 33.613281 L 34.683594 34.191406 L 34.226562 34.476562 L 33.964844 34.285156 L 33.167969 34.816406 L 32.761719 34.117188 " fill-opacity="1" fill-rule="evenodd"/><path fill="#ffffff" d="M 22.039062 28.394531 L 21.472656 38.15625 L 32.78125 42.484375 L 33.140625 34.121094 L 22.039062 28.394531 " fill-opacity="1" fill-rule="evenodd"/><path fill="#ffffff" d="M 14.847656 26.71875 L 15.210938 26.886719 C 15.210938 30.070312 15.210938 32.207031 15.210938 33.347656 L 14.847656 33.222656 C 14.847656 32.121094 14.847656 29.941406 14.847656 26.71875 " fill-opacity="1" fill-rule="evenodd"/><path fill="#ffffff" d="M 15.867188 27.1875 L 16.1875 27.335938 L 16.1875 33.679688 L 15.863281 33.570312 C 15.863281 32.394531 15.867188 30.253906 15.867188 27.1875 " fill-opacity="1" fill-rule="evenodd"/><path fill="#ffffff" d="M 16.839844 27.636719 L 17.074219 27.742188 L 17.074219 33.980469 L 16.839844 33.898438 L 16.839844 27.636719 " fill-opacity="1" fill-rule="evenodd"/><path fill="#ffffff" d="M 17.726562 28.042969 L 18.070312 28.203125 L 18.070312 34.316406 L 17.726562 34.199219 L 17.726562 28.042969 " fill-opacity="1" fill-rule="evenodd"/><path fill="#ffffff" d="M 18.789062 28.53125 L 19 28.628906 C 19 31.523438 19 33.515625 19 34.632812 L 18.785156 34.5625 L 18.789062 28.53125 " fill-opacity="1" fill-rule="evenodd"/><path fill="#ffffff" d="M 19.390625 28.8125 L 19.5625 28.890625 L 19.5625 34.824219 L 19.390625 34.765625 L 19.390625 28.8125 " fill-opacity="1" fill-rule="evenodd"/><path fill="#ffffff" d="M 20.128906 35.015625 L 19.945312 34.953125 C 19.984375 33.90625 20.054688 31.949219 20.152344 29.160156 L 20.320312 29.238281 L 20.128906 35.015625 " fill-opacity="1" fill-rule="evenodd"/><path fill="#ffffff" d="M 14.066406 26.359375 L 14.367188 26.496094 C 14.367188 29.84375 14.367188 32.019531 14.367188 33.0625 L 14.003906 32.9375 L 14.066406 26.359375 " fill-opacity="1" fill-rule="evenodd"/><path fill="#ffffff" d="M 13.308594 25.503906 L 13.121094 32.699219 L 13.695312 32.886719 L 13.695312 25.65625 L 13.308594 25.503906 " fill-opacity="1" fill-rule="evenodd"/><path fill="#ffffff" d="M 7.921875 29.179688 C 8.566406 27.796875 9.996094 27.144531 11.121094 27.71875 C 12.242188 28.289062 12.628906 29.875 11.988281 31.253906 C 11.34375 32.632812 9.914062 33.289062 8.789062 32.714844 C 7.667969 32.140625 7.28125 30.558594 7.921875 29.179688 " fill-opacity="1" fill-rule="nonzero"/><path fill="#ffffff" d="M 18.699219 36.445312 L 11.710938 34.3125 C 11.675781 34.5625 11.609375 34.714844 11.503906 34.761719 L 18.03125 36.746094 C 18.289062 36.757812 18.511719 36.660156 18.699219 36.445312 " fill-opacity="1" fill-rule="evenodd"/><path fill="#ffffff" d="M 16.636719 37.011719 L 9.714844 35 C 9.679688 35.238281 9.613281 35.378906 9.511719 35.421875 L 15.972656 37.292969 C 16.230469 37.308594 16.449219 37.214844 16.636719 37.011719 " fill-opacity="1" fill-rule="evenodd"/><path fill="#ffffff" d="M 11.496094 34.042969 L 11.148438 33.992188 C 11.140625 34.378906 11.003906 34.644531 10.734375 34.785156 C 11.210938 34.871094 11.464844 34.625 11.496094 34.042969 " fill-opacity="1" fill-rule="evenodd"/><path fill="#ffffff" d="M 9.476562 34.757812 L 9.15625 34.710938 C 9.152344 35.066406 9.027344 35.308594 8.78125 35.433594 C 9.214844 35.515625 9.449219 35.289062 9.476562 34.757812 " fill-opacity="1" fill-rule="evenodd"/><path fill="#ffffff" d="M 21.144531 37.800781 L 21.144531 38.1875 L 14.082031 39.054688 Z M 21.144531 37.800781 " fill-opacity="1" fill-rule="evenodd"/><path fill="#211c1d" d="M 26.023438 30.386719 L 26.039062 31.054688 L 25.328125 30.730469 L 25.265625 32.613281 L 25.914062 32.953125 L 25.636719 37.375 L 25.34375 37.375 L 25.496094 33.203125 L 24.925781 32.894531 L 25.019531 30.746094 L 25.296875 30.574219 L 25.757812 30.746094 L 25.742188 30.3125 L 26.023438 30.386719 " fill-opacity="1" fill-rule="evenodd"/><path fill="#211c1d" d="M 23.734375 37.835938 C 22.53125 37.210938 22.132812 35.59375 23.300781 34.808594 L 23.046875 34.179688 L 23.414062 33.972656 L 23.671875 34.792969 C 22.582031 35.496094 23.046875 37.226562 23.945312 37.578125 C 24.273438 38.449219 25.429688 38.480469 25.003906 37.179688 C 25.53125 38.429688 24.3125 38.847656 23.734375 37.835938 " fill-opacity="1" fill-rule="evenodd"/><path fill="#211c1d" d="M 25.339844 34.683594 L 24.90625 34.949219 L 24.636719 34.726562 Z M 25.339844 34.683594 " fill-opacity="1" fill-rule="evenodd"/><path fill="#211c1d" d="M 23.609375 35.96875 C 23.582031 35.707031 23.730469 35.476562 23.941406 35.453125 C 23.984375 35.449219 24.023438 35.453125 24.0625 35.464844 C 23.957031 35.558594 23.894531 35.722656 23.914062 35.898438 C 23.933594 36.109375 24.0625 36.277344 24.222656 36.324219 C 24.171875 36.367188 24.109375 36.398438 24.039062 36.40625 C 23.832031 36.425781 23.636719 36.230469 23.609375 35.96875 " fill-opacity="1" fill-rule="nonzero"/><path fill="#211c1d" d="M 22.238281 30.398438 C 22.089844 29.59375 22.429688 28.851562 22.992188 28.734375 C 23.554688 28.617188 24.128906 29.171875 24.273438 29.972656 C 24.417969 30.773438 24.082031 31.519531 23.519531 31.636719 C 22.957031 31.753906 22.382812 31.199219 22.238281 30.398438 " fill-opacity="1" fill-rule="nonzero"/><path fill="#ffffff" d="M 22.558594 30.328125 C 22.410156 29.527344 22.75 28.785156 23.3125 28.667969 C 23.875 28.550781 24.449219 29.105469 24.59375 29.90625 C 24.738281 30.707031 24.402344 31.453125 23.839844 31.570312 C 23.277344 31.6875 22.703125 31.132812 22.558594 30.328125 " fill-opacity="1" fill-rule="nonzero"/><path fill="#211c1d" d="M 23.363281 29.121094 C 23.390625 29.105469 23.417969 29.097656 23.449219 29.089844 C 23.777344 29.007812 24.117188 29.394531 24.203125 29.957031 C 24.289062 30.519531 24.089844 31.042969 23.757812 31.125 C 23.707031 31.136719 23.65625 31.136719 23.605469 31.128906 C 23.886719 30.988281 24.042969 30.507812 23.964844 29.996094 C 23.894531 29.519531 23.640625 29.167969 23.363281 29.121094 " fill-opacity="1" fill-rule="nonzero"/><path fill="#211c1d" d="M 25.410156 38.09375 L 31.710938 40.917969 C 31.84375 40.898438 31.957031 40.761719 31.851562 40.605469 L 25.679688 37.726562 C 25.683594 37.894531 25.574219 38.042969 25.410156 38.09375 " fill-opacity="1" fill-rule="evenodd"/><path fill="#ffffff" d="M 26.019531 37.730469 C 26.277344 37.949219 26.167969 38.25 25.808594 38.203125 C 26.023438 38.125 26.113281 38.011719 26.019531 37.730469 " fill-opacity="1" fill-rule="evenodd"/><path fill="#ffffff" d="M 26.320312 38.433594 C 26.53125 38.359375 26.621094 38.246094 26.527344 37.972656 C 26.78125 38.183594 26.675781 38.480469 26.320312 38.433594 " fill-opacity="1" fill-rule="evenodd"/><path fill="#ffffff" d="M 26.832031 38.667969 C 27.042969 38.59375 27.128906 38.480469 27.035156 38.210938 C 27.285156 38.421875 27.179688 38.710938 26.832031 38.667969 " fill-opacity="1" fill-rule="evenodd"/><path fill="#ffffff" d="M 27.347656 38.898438 C 27.550781 38.828125 27.636719 38.71875 27.542969 38.453125 C 27.789062 38.660156 27.6875 38.941406 27.347656 38.898438 " fill-opacity="1" fill-rule="evenodd"/><path fill="#ffffff" d="M 27.859375 39.128906 C 28.058594 39.058594 28.144531 38.953125 28.054688 38.695312 C 28.292969 38.894531 28.191406 39.171875 27.859375 39.128906 " fill-opacity="1" fill-rule="evenodd"/><path fill="#ffffff" d="M 28.371094 39.363281 C 28.566406 39.292969 28.648438 39.1875 28.5625 38.933594 C 28.796875 39.132812 28.699219 39.402344 28.371094 39.363281 " fill-opacity="1" fill-rule="evenodd"/><path fill="#ffffff" d="M 28.886719 39.59375 C 29.074219 39.527344 29.15625 39.425781 29.070312 39.175781 C 29.300781 39.367188 29.203125 39.636719 28.886719 39.59375 " fill-opacity="1" fill-rule="evenodd"/><path fill="#ffffff" d="M 29.398438 39.824219 C 29.585938 39.761719 29.664062 39.660156 29.578125 39.417969 C 29.804688 39.605469 29.710938 39.867188 29.398438 39.824219 " fill-opacity="1" fill-rule="evenodd"/><path fill="#ffffff" d="M 29.910156 40.058594 C 30.09375 39.992188 30.171875 39.894531 30.089844 39.660156 C 30.308594 39.84375 30.214844 40.097656 29.910156 40.058594 " fill-opacity="1" fill-rule="evenodd"/><path fill="#ffffff" d="M 30.425781 40.289062 C 30.601562 40.226562 30.679688 40.132812 30.597656 39.898438 C 30.8125 40.078125 30.722656 40.328125 30.425781 40.289062 " fill-opacity="1" fill-rule="evenodd"/><path fill="#ffffff" d="M 30.9375 40.523438 C 31.109375 40.460938 31.183594 40.367188 31.105469 40.140625 C 31.316406 40.316406 31.230469 40.558594 30.9375 40.523438 " fill-opacity="1" fill-rule="evenodd"/><path fill="#ffffff" d="M 31.617188 40.382812 C 31.820312 40.554688 31.734375 40.789062 31.449219 40.753906 C 31.621094 40.695312 31.691406 40.601562 31.617188 40.382812 " fill-opacity="1" fill-rule="evenodd"/><path fill="#211c1d" d="M 26.136719 38.578125 L 26.136719 39.09375 L 31.199219 41.214844 L 30.941406 41.257812 L 25.910156 39.1875 L 25.898438 38.617188 L 26.136719 38.578125 " fill-opacity="1" fill-rule="evenodd"/><path fill="#211c1d" d="M 32.484375 33.761719 L 32.355469 36.183594 L 33.15625 36.511719 L 33.15625 36.726562 L 32.160156 36.335938 L 32.332031 33.785156 L 32.484375 33.761719 " fill-opacity="1" fill-rule="evenodd"/><path fill="#211c1d" d="M 32.398438 39.472656 L 32.3125 41.445312 L 32.960938 41.789062 L 32.179688 41.554688 L 32.160156 39.582031 L 32.398438 39.472656 " fill-opacity="1" fill-rule="evenodd"/><path fill="#211c1d" d="M 17.449219 27.765625 L 21.578125 26.566406 C 21.417969 26.742188 21.449219 26.910156 21.675781 27.070312 L 17.96875 28.09375 L 17.449219 27.765625 " fill-opacity="1" fill-rule="evenodd"/><path fill="#211c1d" d="M 29.457031 32.707031 C 29.355469 32.109375 29.617188 31.558594 30.039062 31.480469 C 30.460938 31.398438 30.878906 31.820312 30.980469 32.417969 C 31.078125 33.019531 30.816406 33.570312 30.394531 33.648438 C 29.972656 33.730469 29.554688 33.308594 29.457031 32.707031 " fill-opacity="1" fill-rule="nonzero"/><path fill="#ffffff" d="M 29.695312 32.664062 C 29.597656 32.0625 29.859375 31.511719 30.277344 31.433594 C 30.699219 31.351562 31.121094 31.773438 31.21875 32.375 C 31.316406 32.972656 31.054688 33.523438 30.632812 33.601562 C 30.214844 33.683594 29.792969 33.261719 29.695312 32.664062 " fill-opacity="1" fill-rule="nonzero"/><path fill="#211c1d" d="M 30.320312 31.761719 C 30.339844 31.753906 30.363281 31.746094 30.382812 31.742188 C 30.632812 31.683594 30.878906 31.976562 30.933594 32.398438 C 30.992188 32.816406 30.835938 33.203125 30.589844 33.261719 C 30.550781 33.269531 30.511719 33.269531 30.472656 33.261719 C 30.683594 33.160156 30.808594 32.804688 30.757812 32.421875 C 30.710938 32.066406 30.527344 31.800781 30.320312 31.761719 " fill-opacity="1" fill-rule="nonzero"/><path fill="#211c1d" d="M 29.578125 32.109375 L 28.886719 32.175781 C 28.441406 32.472656 28.613281 33.261719 29.085938 33.367188 L 29.808594 33.316406 L 29.578125 32.109375 " fill-opacity="1" fill-rule="evenodd"/><path fill="#211c1d" d="M 21.660156 27.066406 L 22.792969 29.035156 L 22.480469 29.140625 L 21.160156 27 L 21.660156 27.066406 " fill-opacity="1" fill-rule="evenodd"/><path fill="#ffffff" d="M 21.574219 26.847656 L 22.796875 29.171875 L 23.382812 28.796875 L 22.015625 26.875 L 21.574219 26.847656 " fill-opacity="1" fill-rule="evenodd"/><path fill="#ffffff" d="M 18.179688 27.84375 L 18.332031 27.90625 L 21.46875 27.066406 C 21.410156 27.050781 21.371094 27.019531 21.351562 26.964844 L 18.179688 27.84375 " fill-opacity="1" fill-rule="evenodd"/><path fill="#211c1d" d="M 26.632812 24.734375 C 27.164062 27.234375 26.488281 29.007812 25.660156 29.636719 C 26.433594 28.933594 27.023438 27.214844 26.515625 24.828125 C 25.882812 21.851562 24.109375 20.515625 23.101562 20.730469 C 22.9375 20.765625 22.777344 20.84375 22.617188 20.960938 C 22.8125 20.789062 23.015625 20.675781 23.214844 20.632812 C 24.226562 20.417969 26 21.753906 26.632812 24.734375 " fill-opacity="1" fill-rule="nonzero"/><path fill="#211c1d" d="M 26.035156 24.507812 C 25.988281 24.277344 26.074219 24.066406 26.234375 24.039062 C 26.394531 24.011719 26.5625 24.175781 26.613281 24.40625 C 26.664062 24.636719 26.574219 24.847656 26.414062 24.875 C 26.257812 24.902344 26.085938 24.738281 26.035156 24.507812 " fill-opacity="1" fill-rule="nonzero"/><path fill="#ffffff" d="M 26.1875 24.472656 C 26.136719 24.238281 26.226562 24.03125 26.386719 24 C 26.546875 23.972656 26.714844 24.140625 26.765625 24.371094 C 26.8125 24.601562 26.726562 24.8125 26.566406 24.839844 C 26.40625 24.867188 26.238281 24.703125 26.1875 24.472656 " fill-opacity="1" fill-rule="nonzero"/><path fill="#211c1d" d="M 32.625 28.730469 C 33.109375 30.992188 32.496094 32.59375 31.75 33.164062 C 32.449219 32.53125 32.980469 30.972656 32.523438 28.816406 C 31.949219 26.121094 30.34375 24.914062 29.433594 25.109375 C 29.285156 25.140625 29.136719 25.210938 28.996094 25.320312 C 29.167969 25.160156 29.355469 25.058594 29.535156 25.023438 C 30.449219 24.828125 32.054688 26.035156 32.625 28.730469 " fill-opacity="1" fill-rule="nonzero"/><path fill="#211c1d" d="M 32.085938 28.53125 C 32.039062 28.320312 32.121094 28.128906 32.265625 28.105469 C 32.410156 28.078125 32.5625 28.230469 32.605469 28.4375 C 32.652344 28.648438 32.570312 28.835938 32.425781 28.863281 C 32.285156 28.886719 32.128906 28.738281 32.085938 28.53125 " fill-opacity="1" fill-rule="nonzero"/><path fill="#ffffff" d="M 32.222656 28.496094 C 32.175781 28.289062 32.257812 28.097656 32.402344 28.070312 C 32.546875 28.046875 32.699219 28.195312 32.742188 28.40625 C 32.789062 28.613281 32.707031 28.804688 32.5625 28.828125 C 32.421875 28.855469 32.265625 28.707031 32.222656 28.496094 " fill-opacity="1" fill-rule="nonzero"/><path fill="#211c1d" d="M 8.414062 29.265625 C 9.058594 27.886719 10.488281 27.230469 11.609375 27.804688 C 12.734375 28.378906 13.121094 29.960938 12.480469 31.339844 C 11.835938 32.722656 10.40625 33.375 9.28125 32.800781 C 8.160156 32.230469 7.773438 30.644531 8.414062 29.265625 " fill-opacity="1" fill-rule="nonzero"/><path fill="#ffffff" d="M 8.734375 29.292969 C 9.195312 28.304688 10.0625 27.6875 10.929688 27.628906 C 10.992188 27.652344 11.058594 27.683594 11.121094 27.714844 C 12.246094 28.289062 12.632812 29.871094 11.992188 31.25 C 11.527344 32.242188 10.664062 32.859375 9.796875 32.914062 C 9.730469 32.890625 9.664062 32.863281 9.601562 32.828125 C 8.480469 32.257812 8.089844 30.671875 8.734375 29.292969 " fill-opacity="1" fill-rule="nonzero"/><path fill="#ffffff" d="M 27.148438 42.15625 L 25.867188 45.566406 L 25.363281 45.566406 L 26.625 42.28125 L 27.148438 42.15625 " fill-opacity="1" fill-rule="evenodd"/><path fill="#ffffff" d="M 24.601562 41.722656 L 23.773438 41.519531 C 23.996094 43.085938 24.496094 44.226562 25.273438 44.949219 L 25.707031 44.03125 C 25.34375 43.785156 24.972656 43.015625 24.601562 41.722656 " fill-opacity="1" fill-rule="evenodd"/><path fill="#ffffff" d="M 29.332031 48.152344 C 29.332031 47.800781 29.558594 47.511719 29.835938 47.511719 C 30.113281 47.511719 30.339844 47.800781 30.339844 48.152344 C 30.339844 48.507812 30.113281 48.792969 29.835938 48.792969 C 29.558594 48.792969 29.332031 48.507812 29.332031 48.152344 " fill-opacity="1" fill-rule="nonzero"/><path fill="#ffffff" d="M 29.132812 47.4375 C 26.023438 45.628906 21.457031 45.667969 19.664062 47.378906 C 22.449219 46.085938 25.605469 46.105469 29.132812 47.4375 " fill-opacity="1" fill-rule="evenodd"/><path fill="#ffffff" d="M 25.578125 49.835938 L 25.578125 54.890625 L 25.183594 54.835938 Z M 25.578125 49.835938 " fill-opacity="1" fill-rule="evenodd"/><path fill="#ffffff" d="M 27.886719 45.066406 C 27.886719 44.421875 28.257812 43.902344 28.714844 43.902344 C 29.171875 43.902344 29.542969 44.421875 29.542969 45.066406 C 29.542969 45.707031 29.171875 46.230469 28.714844 46.230469 C 28.257812 46.230469 27.886719 45.707031 27.886719 45.066406 " fill-opacity="1" fill-rule="nonzero"/><path fill="#ffffff" d="M 23.433594 47.695312 C 24.875 47.632812 26.464844 47.878906 27.890625 48.445312 L 27.910156 48.628906 C 26.289062 48.144531 24.753906 47.949219 23.296875 48.046875 L 23.433594 47.695312 " fill-opacity="1" fill-rule="evenodd"/><path fill="#211c1d" d="M 19.714844 48.140625 L 20.800781 49.058594 L 17.144531 55.789062 C 16.632812 55.640625 16.128906 55.472656 15.636719 55.285156 L 19.714844 48.140625 " fill-opacity="1" fill-rule="nonzero"/><g clip-path="url(#48bb32c31a)"><path fill="#211c1d" d="M 21.792969 47.761719 L 23.257812 47.679688 L 20.035156 56.378906 C 19.4375 56.304688 18.851562 56.203125 18.273438 56.074219 L 21.792969 47.761719 " fill-opacity="1" fill-rule="nonzero"/></g><path fill="#ffffff" d="M 22.710938 48.464844 L 22.007812 50.292969 C 21.914062 50.234375 21.773438 50.214844 21.585938 50.242188 L 22.359375 48.339844 C 22.546875 48.324219 22.664062 48.363281 22.710938 48.464844 " fill-opacity="1" fill-rule="evenodd"/><g fill="#dfac25" fill-opacity="0.302"><g transform="translate(48.113745, 49.411973)"><g><path d="M 1.328125 -2.296875 L 1.328125 -12.265625 L 1.15625 -12.265625 L 0 -14.5 L 1.328125 -19.703125 L 8.03125 -19.703125 L 8.21875 -20.390625 L 12.96875 -20.390625 L 14.03125 -18.03125 L 12.609375 -12.265625 L 12.40625 -12.265625 L 13.125 -10.609375 L 11.9375 -5.9375 L 7.625 -5.9375 L 7.625 0 L 2.453125 0 Z M 6.03125 -2.75 L 6.03125 -8.75 L 10.453125 -8.75 L 11.40625 -12.40625 L 6.03125 -12.40625 L 6.03125 -14.984375 L 11.078125 -14.984375 L 12.328125 -19.890625 L 8.6875 -19.890625 L 8.453125 -19.171875 L 1.75 -19.171875 L 0.671875 -14.984375 L 1.890625 -14.984375 L 1.890625 -2.75 Z M 6.03125 -2.75 "/></g></g></g><g fill="#dfac25" fill-opacity="0.302"><g transform="translate(62.057864, 49.411973)"><g><path d="M 1.484375 -2.25 L 1.484375 -12.234375 L 1.296875 -12.234375 L 0.140625 -14.53125 L 1.484375 -19.703125 L 6.625 -19.703125 L 7.796875 -17.46875 L 7.796875 0 L 2.59375 0 Z M 6.203125 -2.75 L 6.203125 -19.171875 L 1.859375 -19.171875 L 0.796875 -14.984375 L 2.015625 -14.984375 L 2.015625 -2.75 Z M 6.203125 -2.75 "/></g></g></g><g fill="#dfac25" fill-opacity="0.302"><g transform="translate(71.186536, 49.411973)"><g><path d="M 1.484375 -2.25 L 1.484375 -12.234375 L 1.296875 -12.234375 L 0.140625 -14.53125 L 1.484375 -19.703125 L 6.625 -19.703125 L 7.796875 -17.46875 L 7.796875 0 L 2.59375 0 Z M 6.203125 -2.75 L 6.203125 -19.171875 L 1.859375 -19.171875 L 0.796875 -14.984375 L 2.015625 -14.984375 L 2.015625 -2.75 Z M 6.203125 -2.75 "/></g></g></g><g fill="#dfac25" fill-opacity="0.302"><g transform="translate(80.315207, 49.411973)"><g><path d="M 1.359375 -2.28125 L 1.359375 -12.234375 L 1.1875 -12.234375 L 0 -14.5 L 1.359375 -19.703125 L 6.4375 -19.703125 L 7.65625 -17.25 L 7.65625 -7.5 L 10.171875 -7.5 L 11.25 -5.265625 L 9.921875 0 L 2.484375 0 Z M 8.515625 -2.75 L 9.546875 -6.9375 L 6.09375 -6.9375 L 6.09375 -19.171875 L 1.75 -19.171875 L 0.625 -14.984375 L 1.921875 -14.984375 L 1.921875 -2.75 Z M 8.515625 -2.75 "/></g></g></g><g fill="#dfac25" fill-opacity="0.302"><g transform="translate(91.541405, 49.411973)"><g><path d="M 1.328125 -2.25 L 1.328125 -12.234375 L 1.15625 -12.234375 L 0 -14.5625 L 1.328125 -19.703125 L 6.671875 -19.703125 L 9.75 -15.84375 L 12.96875 -19.703125 L 18.140625 -19.703125 L 19.296875 -17.4375 L 19.296875 0 L 14.234375 0 L 12.96875 -2.390625 L 12.96875 -8.625 L 10.875 -5.734375 L 7.65625 -9.953125 L 7.65625 0 L 2.421875 0 Z M 6.0625 -2.75 L 6.0625 -13.65625 L 9.78125 -8.78125 L 13.5 -13.921875 L 13.5 -2.75 L 17.75 -2.75 L 17.75 -19.171875 L 13.171875 -19.171875 L 9.75 -14.984375 L 6.4375 -19.171875 L 1.71875 -19.171875 L 0.625 -14.984375 L 1.859375 -14.984375 L 1.859375 -2.75 Z M 6.0625 -2.75 "/></g></g></g><g fill="#dfac25" fill-opacity="0.302"><g transform="translate(112.014443, 49.411973)"><g><path d="M 3.84375 -2.328125 L 3.84375 -10.140625 L -1.21875 -19.703125 L 4.703125 -19.703125 L 6.40625 -15.6875 L 8.1875 -19.703125 L 13.921875 -19.703125 L 15.15625 -17.28125 L 10.109375 -7.921875 L 10.109375 0 L 4.9375 0 Z M 8.515625 -2.75 L 8.515625 -10.4375 L 13.140625 -19.171875 L 8.515625 -19.171875 L 6.40625 -14.390625 L 4.34375 -19.171875 L -0.328125 -19.171875 L 4.34375 -10.28125 L 4.34375 -2.75 Z M 8.515625 -2.75 "/></g></g></g><g fill="#dfac25" fill-opacity="0.302"><g transform="translate(127.051641, 49.411973)"><g><path d="M 1.359375 -2.296875 L 1.359375 -12.265625 L 1.21875 -12.265625 L 0 -14.59375 L 1.359375 -19.703125 L 6.890625 -19.703125 L 11.015625 -12.796875 L 11.015625 -19.703125 L 16.125 -19.703125 L 17.3125 -17.4375 L 17.3125 0 L 12.703125 0 L 7.6875 -8.328125 L 7.6875 0 L 2.453125 0 Z M 6.09375 -2.75 L 6.09375 -12.609375 L 11.90625 -2.75 L 15.75 -2.75 L 15.75 -19.171875 L 11.515625 -19.171875 L 11.515625 -10.96875 L 6.59375 -19.171875 L 1.71875 -19.171875 L 0.625 -14.984375 L 1.859375 -14.984375 L 1.859375 -2.75 Z M 6.09375 -2.75 "/></g></g></g><g fill="#dfac25" fill-opacity="0.502"><g transform="translate(46.808042, 48.10627)"><g><path d="M 1.328125 -2.296875 L 1.328125 -12.265625 L 1.15625 -12.265625 L 0 -14.5 L 1.328125 -19.703125 L 8.03125 -19.703125 L 8.21875 -20.390625 L 12.96875 -20.390625 L 14.03125 -18.03125 L 12.609375 -12.265625 L 12.40625 -12.265625 L 13.125 -10.609375 L 11.9375 -5.9375 L 7.625 -5.9375 L 7.625 0 L 2.453125 0 Z M 6.03125 -2.75 L 6.03125 -8.75 L 10.453125 -8.75 L 11.40625 -12.40625 L 6.03125 -12.40625 L 6.03125 -14.984375 L 11.078125 -14.984375 L 12.328125 -19.890625 L 8.6875 -19.890625 L 8.453125 -19.171875 L 1.75 -19.171875 L 0.671875 -14.984375 L 1.890625 -14.984375 L 1.890625 -2.75 Z M 6.03125 -2.75 "/></g></g></g><g fill="#dfac25" fill-opacity="0.502"><g transform="translate(60.752161, 48.10627)"><g><path d="M 1.484375 -2.25 L 1.484375 -12.234375 L 1.296875 -12.234375 L 0.140625 -14.53125 L 1.484375 -19.703125 L 6.625 -19.703125 L 7.796875 -17.46875 L 7.796875 0 L 2.59375 0 Z M 6.203125 -2.75 L 6.203125 -19.171875 L 1.859375 -19.171875 L 0.796875 -14.984375 L 2.015625 -14.984375 L 2.015625 -2.75 Z M 6.203125 -2.75 "/></g></g></g><g fill="#dfac25" fill-opacity="0.502"><g transform="translate(69.880833, 48.10627)"><g><path d="M 1.484375 -2.25 L 1.484375 -12.234375 L 1.296875 -12.234375 L 0.140625 -14.53125 L 1.484375 -19.703125 L 6.625 -19.703125 L 7.796875 -17.46875 L 7.796875 0 L 2.59375 0 Z M 6.203125 -2.75 L 6.203125 -19.171875 L 1.859375 -19.171875 L 0.796875 -14.984375 L 2.015625 -14.984375 L 2.015625 -2.75 Z M 6.203125 -2.75 "/></g></g></g><g fill="#dfac25" fill-opacity="0.502"><g transform="translate(79.009504, 48.10627)"><g><path d="M 1.359375 -2.28125 L 1.359375 -12.234375 L 1.1875 -12.234375 L 0 -14.5 L 1.359375 -19.703125 L 6.4375 -19.703125 L 7.65625 -17.25 L 7.65625 -7.5 L 10.171875 -7.5 L 11.25 -5.265625 L 9.921875 0 L 2.484375 0 Z M 8.515625 -2.75 L 9.546875 -6.9375 L 6.09375 -6.9375 L 6.09375 -19.171875 L 1.75 -19.171875 L 0.625 -14.984375 L 1.921875 -14.984375 L 1.921875 -2.75 Z M 8.515625 -2.75 "/></g></g></g><g fill="#dfac25" fill-opacity="0.502"><g transform="translate(90.235702, 48.10627)"><g><path d="M 1.328125 -2.25 L 1.328125 -12.234375 L 1.15625 -12.234375 L 0 -14.5625 L 1.328125 -19.703125 L 6.671875 -19.703125 L 9.75 -15.84375 L 12.96875 -19.703125 L 18.140625 -19.703125 L 19.296875 -17.4375 L 19.296875 0 L 14.234375 0 L 12.96875 -2.390625 L 12.96875 -8.625 L 10.875 -5.734375 L 7.65625 -9.953125 L 7.65625 0 L 2.421875 0 Z M 6.0625 -2.75 L 6.0625 -13.65625 L 9.78125 -8.78125 L 13.5 -13.921875 L 13.5 -2.75 L 17.75 -2.75 L 17.75 -19.171875 L 13.171875 -19.171875 L 9.75 -14.984375 L 6.4375 -19.171875 L 1.71875 -19.171875 L 0.625 -14.984375 L 1.859375 -14.984375 L 1.859375 -2.75 Z M 6.0625 -2.75 "/></g></g></g><g fill="#dfac25" fill-opacity="0.502"><g transform="translate(110.70874, 48.10627)"><g><path d="M 3.84375 -2.328125 L 3.84375 -10.140625 L -1.21875 -19.703125 L 4.703125 -19.703125 L 6.40625 -15.6875 L 8.1875 -19.703125 L 13.921875 -19.703125 L 15.15625 -17.28125 L 10.109375 -7.921875 L 10.109375 0 L 4.9375 0 Z M 8.515625 -2.75 L 8.515625 -10.4375 L 13.140625 -19.171875 L 8.515625 -19.171875 L 6.40625 -14.390625 L 4.34375 -19.171875 L -0.328125 -19.171875 L 4.34375 -10.28125 L 4.34375 -2.75 Z M 8.515625 -2.75 "/></g></g></g><g fill="#dfac25" fill-opacity="0.502"><g transform="translate(125.745938, 48.10627)"><g><path d="M 1.359375 -2.296875 L 1.359375 -12.265625 L 1.21875 -12.265625 L 0 -14.59375 L 1.359375 -19.703125 L 6.890625 -19.703125 L 11.015625 -12.796875 L 11.015625 -19.703125 L 16.125 -19.703125 L 17.3125 -17.4375 L 17.3125 0 L 12.703125 0 L 7.6875 -8.328125 L 7.6875 0 L 2.453125 0 Z M 6.09375 -2.75 L 6.09375 -12.609375 L 11.90625 -2.75 L 15.75 -2.75 L 15.75 -19.171875 L 11.515625 -19.171875 L 11.515625 -10.96875 L 6.59375 -19.171875 L 1.71875 -19.171875 L 0.625 -14.984375 L 1.859375 -14.984375 L 1.859375 -2.75 Z M 6.09375 -2.75 "/></g></g></g><g fill="#dfac25" fill-opacity="1"><g transform="translate(45.502339, 46.800567)"><g><path d="M 1.328125 -2.296875 L 1.328125 -12.265625 L 1.15625 -12.265625 L 0 -14.5 L 1.328125 -19.703125 L 8.03125 -19.703125 L 8.21875 -20.390625 L 12.96875 -20.390625 L 14.03125 -18.03125 L 12.609375 -12.265625 L 12.40625 -12.265625 L 13.125 -10.609375 L 11.9375 -5.9375 L 7.625 -5.9375 L 7.625 0 L 2.453125 0 Z M 6.03125 -2.75 L 6.03125 -8.75 L 10.453125 -8.75 L 11.40625 -12.40625 L 6.03125 -12.40625 L 6.03125 -14.984375 L 11.078125 -14.984375 L 12.328125 -19.890625 L 8.6875 -19.890625 L 8.453125 -19.171875 L 1.75 -19.171875 L 0.671875 -14.984375 L 1.890625 -14.984375 L 1.890625 -2.75 Z M 6.03125 -2.75 "/></g></g></g><g fill="#dfac25" fill-opacity="1"><g transform="translate(59.446458, 46.800567)"><g><path d="M 1.484375 -2.25 L 1.484375 -12.234375 L 1.296875 -12.234375 L 0.140625 -14.53125 L 1.484375 -19.703125 L 6.625 -19.703125 L 7.796875 -17.46875 L 7.796875 0 L 2.59375 0 Z M 6.203125 -2.75 L 6.203125 -19.171875 L 1.859375 -19.171875 L 0.796875 -14.984375 L 2.015625 -14.984375 L 2.015625 -2.75 Z M 6.203125 -2.75 "/></g></g></g><g fill="#dfac25" fill-opacity="1"><g transform="translate(68.57513, 46.800567)"><g><path d="M 1.484375 -2.25 L 1.484375 -12.234375 L 1.296875 -12.234375 L 0.140625 -14.53125 L 1.484375 -19.703125 L 6.625 -19.703125 L 7.796875 -17.46875 L 7.796875 0 L 2.59375 0 Z M 6.203125 -2.75 L 6.203125 -19.171875 L 1.859375 -19.171875 L 0.796875 -14.984375 L 2.015625 -14.984375 L 2.015625 -2.75 Z M 6.203125 -2.75 "/></g></g></g><g fill="#dfac25" fill-opacity="1"><g transform="translate(77.703801, 46.800567)"><g><path d="M 1.359375 -2.28125 L 1.359375 -12.234375 L 1.1875 -12.234375 L 0 -14.5 L 1.359375 -19.703125 L 6.4375 -19.703125 L 7.65625 -17.25 L 7.65625 -7.5 L 10.171875 -7.5 L 11.25 -5.265625 L 9.921875 0 L 2.484375 0 Z M 8.515625 -2.75 L 9.546875 -6.9375 L 6.09375 -6.9375 L 6.09375 -19.171875 L 1.75 -19.171875 L 0.625 -14.984375 L 1.921875 -14.984375 L 1.921875 -2.75 Z M 8.515625 -2.75 "/></g></g></g><g fill="#dfac25" fill-opacity="1"><g transform="translate(88.929999, 46.800567)"><g><path d="M 1.328125 -2.25 L 1.328125 -12.234375 L 1.15625 -12.234375 L 0 -14.5625 L 1.328125 -19.703125 L 6.671875 -19.703125 L 9.75 -15.84375 L 12.96875 -19.703125 L 18.140625 -19.703125 L 19.296875 -17.4375 L 19.296875 0 L 14.234375 0 L 12.96875 -2.390625 L 12.96875 -8.625 L 10.875 -5.734375 L 7.65625 -9.953125 L 7.65625 0 L 2.421875 0 Z M 6.0625 -2.75 L 6.0625 -13.65625 L 9.78125 -8.78125 L 13.5 -13.921875 L 13.5 -2.75 L 17.75 -2.75 L 17.75 -19.171875 L 13.171875 -19.171875 L 9.75 -14.984375 L 6.4375 -19.171875 L 1.71875 -19.171875 L 0.625 -14.984375 L 1.859375 -14.984375 L 1.859375 -2.75 Z M 6.0625 -2.75 "/></g></g></g><g fill="#dfac25" fill-opacity="1"><g transform="translate(109.403037, 46.800567)"><g><path d="M 3.84375 -2.328125 L 3.84375 -10.140625 L -1.21875 -19.703125 L 4.703125 -19.703125 L 6.40625 -15.6875 L 8.1875 -19.703125 L 13.921875 -19.703125 L 15.15625 -17.28125 L 10.109375 -7.921875 L 10.109375 0 L 4.9375 0 Z M 8.515625 -2.75 L 8.515625 -10.4375 L 13.140625 -19.171875 L 8.515625 -19.171875 L 6.40625 -14.390625 L 4.34375 -19.171875 L -0.328125 -19.171875 L 4.34375 -10.28125 L 4.34375 -2.75 Z M 8.515625 -2.75 "/></g></g></g><g fill="#dfac25" fill-opacity="1"><g transform="translate(124.440235, 46.800567)"><g><path d="M 1.359375 -2.296875 L 1.359375 -12.265625 L 1.21875 -12.265625 L 0 -14.59375 L 1.359375 -19.703125 L 6.890625 -19.703125 L 11.015625 -12.796875 L 11.015625 -19.703125 L 16.125 -19.703125 L 17.3125 -17.4375 L 17.3125 0 L 12.703125 0 L 7.6875 -8.328125 L 7.6875 0 L 2.453125 0 Z M 6.09375 -2.75 L 6.09375 -12.609375 L 11.90625 -2.75 L 15.75 -2.75 L 15.75 -19.171875 L 11.515625 -19.171875 L 11.515625 -10.96875 L 6.59375 -19.171875 L 1.71875 -19.171875 L 0.625 -14.984375 L 1.859375 -14.984375 L 1.859375 -2.75 Z M 6.09375 -2.75 "/></g></g></g></svg>